<svg width="39" height="39" viewBox="0 0 39 39" fill="none" xmlns="http://www.w3.org/2000/svg">
<path d="M39 19.5119C39 24.9279 37.1032 29.5304 33.3095 33.3193C29.5159 37.1064 24.9127 39 19.5 39C14.0873 39 9.48413 37.1064 5.69048 33.3193C1.89683 29.5304 0 24.9279 0 19.5119C0 14.0959 1.89683 9.48993 5.69048 5.69396C9.48413 1.89799 14.0873 0 19.5 0C24.9127 0 29.5159 1.89799 33.3095 5.69396C37.1032 9.48993 39 14.0959 39 19.5119ZM35.8095 19.5119C35.8095 14.9695 34.2257 11.11 31.0582 7.93341C27.8924 4.75687 24.0397 3.1686 19.5 3.1686C14.9603 3.1686 11.1032 4.75687 7.92856 7.93341C4.75396 11.11 3.16666 14.9695 3.16666 19.5119C3.16666 24.0544 4.75396 27.9103 7.92856 31.0798C11.1032 34.2475 14.9603 35.8314 19.5 35.8314C24.0397 35.8314 27.8924 34.2475 31.0582 31.0798C34.2257 27.9103 35.8095 24.0544 35.8095 19.5119ZM23.5 9.45815C23.5 10.5223 23.1032 11.4117 22.3095 12.1265C21.5159 12.8412 20.5794 13.1985 19.5 13.1985C18.4206 13.1985 17.4841 12.8412 16.6905 12.1265C15.8968 11.4117 15.5 10.5223 15.5 9.45815C15.5 8.39402 15.8968 7.50459 16.6905 6.78986C17.4841 6.07514 18.4206 5.71778 19.5 5.71778C20.5794 5.71778 21.5159 6.07514 22.3095 6.78986C23.1032 7.50459 23.5 8.39402 23.5 9.45815ZM22.7619 34.0923H16.2143V15.5095H22.7619V34.0923Z" fill="black"/>
</svg>
